<svg xmlns="http://www.w3.org/2000/svg" xmlns:xlink="http://www.w3.org/1999/xlink" width="150" zoomAndPan="magnify" viewBox="0 0 112.5 112.499997" height="150" preserveAspectRatio="xMidYMid meet" version="1.0"><defs><clipPath id="23350c92ad"><path d="M 1.875 54.636719 L 109.144531 54.636719 L 109.144531 62.371094 L 1.875 62.371094 Z M 1.875 54.636719 " clip-rule="nonzero"/></clipPath><clipPath id="4b3b8f4790"><path d="M 69 22 L 112.003906 22 L 112.003906 95 L 69 95 Z M 69 22 " clip-rule="nonzero"/></clipPath></defs><g clip-path="url(#23350c92ad)"><path fill="#ffffff" d="M 6.867188 57.609375 L 1.878906 57.078125 L 6.949219 57.078125 C 6.910156 57.238281 6.882812 57.414062 6.867188 57.609375 Z M 2.207031 55.945312 L 7.269531 55.945312 L 7.089844 56.464844 Z M 1.984375 58.214844 L 6.867188 58.214844 C 6.882812 58.425781 6.914062 58.601562 6.960938 58.746094 Z M 8.515625 59.878906 L 2.289062 59.347656 L 7.363281 59.347656 C 7.621094 59.597656 8.003906 59.777344 8.515625 59.878906 Z M 3.089844 54.8125 L 8.148438 54.8125 C 7.96875 54.929688 7.796875 55.09375 7.632812 55.296875 Z M 6.3125 61 L 2.089844 60.480469 L 6.492188 60.480469 Z M 5.9375 62.144531 L 1.890625 61.625 L 6.113281 61.625 Z M 6.335938 62.0625 L 6.996094 60.113281 C 7.65625 60.296875 8.257812 60.386719 8.804688 60.386719 C 9.347656 60.386719 9.792969 60.363281 10.140625 60.316406 L 10.234375 59.726562 L 9.257812 59.628906 C 8.511719 59.558594 7.984375 59.390625 7.671875 59.121094 C 7.363281 58.855469 7.207031 58.476562 7.207031 57.988281 C 7.207031 57.777344 7.230469 57.539062 7.28125 57.28125 C 7.460938 56.273438 7.789062 55.578125 8.269531 55.203125 C 8.746094 54.824219 9.484375 54.636719 10.476562 54.636719 C 11.46875 54.636719 12.34375 54.734375 13.105469 54.929688 L 12.492188 56.820312 C 11.8125 56.703125 11.265625 56.644531 10.851562 56.644531 C 10.441406 56.644531 10.085938 56.664062 9.785156 56.703125 L 9.691406 57.28125 L 10.480469 57.363281 C 11.28125 57.449219 11.851562 57.640625 12.1875 57.933594 C 12.523438 58.230469 12.695312 58.625 12.695312 59.121094 C 12.695312 59.625 12.585938 60.144531 12.375 60.679688 C 12.257812 60.957031 12.136719 61.1875 12.007812 61.371094 C 11.875 61.554688 11.710938 61.714844 11.511719 61.84375 C 11.3125 61.972656 11.128906 62.070312 10.964844 62.136719 C 10.796875 62.207031 10.585938 62.253906 10.328125 62.289062 C 9.96875 62.34375 9.519531 62.371094 8.984375 62.371094 C 8.011719 62.371094 7.128906 62.265625 6.335938 62.0625 Z M 21.472656 62.191406 L 19.414062 62.191406 L 19.367188 61.234375 L 17.882812 61.234375 L 17.519531 62.191406 L 15.484375 62.191406 L 18.097656 55.945312 L 21.015625 55.945312 Z M 18.507812 59.546875 L 19.367188 59.546875 L 19.367188 57.753906 L 19.203125 57.753906 Z M 15.328125 61.625 L 15.105469 62.144531 L 10.28125 61.625 Z M 15.8125 60.480469 L 15.589844 61 L 10.761719 60.480469 Z M 16.285156 59.347656 L 16.070312 59.867188 L 11.246094 59.347656 Z M 16.765625 58.214844 L 16.542969 58.734375 L 11.726562 58.214844 Z M 17.238281 57.078125 L 17.023438 57.597656 L 12.210938 57.078125 Z M 17.707031 55.945312 L 17.496094 56.453125 L 12.695312 55.945312 Z M 28.675781 60.292969 L 28.488281 62.0625 C 28.066406 62.242188 27.476562 62.335938 26.722656 62.335938 C 25.96875 62.335938 25.414062 62.175781 25.054688 61.855469 C 24.699219 61.535156 24.523438 61.035156 24.523438 60.351562 C 24.523438 60.042969 24.570312 59.617188 24.664062 59.074219 C 24.859375 57.933594 25.199219 57.105469 25.679688 56.59375 C 26.164062 56.082031 26.933594 55.828125 27.996094 55.828125 C 28.753906 55.828125 29.277344 55.914062 29.558594 56.085938 L 28.960938 57.730469 C 28.566406 57.617188 28.210938 57.5625 27.886719 57.5625 C 27.566406 57.5625 27.339844 57.589844 27.210938 57.644531 C 27.082031 57.703125 27 57.808594 26.96875 57.964844 L 26.511719 60.492188 C 26.675781 60.53125 26.960938 60.550781 27.363281 60.550781 C 27.769531 60.550781 28.207031 60.464844 28.675781 60.292969 Z M 19.554688 59.347656 L 24.25 59.347656 C 24.21875 59.589844 24.199219 59.757812 24.191406 59.84375 Z M 19.765625 58.214844 L 24.476562 58.214844 L 24.371094 58.710938 Z M 19.601562 60.480469 L 24.179688 60.480469 C 24.179688 60.605469 24.195312 60.773438 24.226562 60.976562 Z M 20.238281 57.078125 L 24.886719 57.078125 C 24.792969 57.285156 24.726562 57.441406 24.6875 57.550781 Z M 20.625 61.625 L 24.429688 61.625 C 24.523438 61.816406 24.625 61.960938 24.734375 62.0625 Z M 21.816406 55.945312 L 25.910156 55.945312 C 25.722656 56.054688 25.5625 56.1875 25.429688 56.335938 Z M 37.125 62.191406 L 35.148438 62.191406 L 35.511719 60.03125 L 34.195312 60.03125 L 33.816406 62.191406 L 31.839844 62.191406 L 32.921875 55.945312 L 34.914062 55.945312 L 34.523438 58.105469 L 35.855469 58.105469 L 36.230469 55.945312 L 38.21875 55.945312 Z M 31.546875 61.625 L 31.453125 62.15625 L 26.460938 61.625 Z M 31.945312 59.347656 L 31.851562 59.878906 L 26.863281 59.347656 Z M 32.148438 58.214844 L 32.050781 58.746094 L 27.0625 58.214844 Z M 32.347656 57.078125 L 32.253906 57.609375 L 27.261719 57.078125 Z M 32.535156 55.945312 L 32.453125 56.476562 L 27.460938 55.945312 Z M 31.746094 60.480469 L 31.652344 61.011719 L 26.660156 60.480469 Z M 46.210938 62.191406 L 44.234375 62.191406 L 44.597656 60.03125 L 43.28125 60.03125 L 42.90625 62.191406 L 40.925781 62.191406 L 42.011719 55.945312 L 44 55.945312 L 43.609375 58.105469 L 44.941406 58.105469 L 45.316406 55.945312 L 47.304688 55.945312 Z M 40.632812 61.625 L 40.539062 62.15625 L 35.546875 61.625 Z M 41.03125 59.347656 L 40.9375 59.878906 L 35.949219 59.347656 Z M 41.234375 58.214844 L 41.140625 58.746094 L 36.148438 58.214844 Z M 41.433594 57.078125 L 41.339844 57.609375 L 36.347656 57.078125 Z M 41.621094 55.945312 L 41.539062 56.476562 L 36.546875 55.945312 Z M 40.832031 60.480469 L 40.738281 61.011719 L 35.75 60.480469 Z M 55.863281 62.191406 L 53.804688 62.191406 L 53.757812 61.234375 L 52.273438 61.234375 L 51.910156 62.191406 L 49.871094 62.191406 L 52.484375 55.945312 L 55.402344 55.945312 Z M 52.898438 59.546875 L 53.757812 59.546875 L 53.757812 57.753906 L 53.589844 57.753906 Z M 49.71875 61.625 L 49.496094 62.144531 L 44.667969 61.625 Z M 50.203125 60.480469 L 49.976562 61 L 45.152344 60.480469 Z M 50.671875 59.347656 L 50.460938 59.867188 L 45.636719 59.347656 Z M 51.15625 58.214844 L 50.929688 58.734375 L 46.117188 58.214844 Z M 51.625 57.078125 L 51.414062 57.597656 L 46.601562 57.078125 Z M 52.097656 55.945312 L 51.886719 56.453125 L 47.082031 55.945312 Z M 64.359375 59.652344 L 63.300781 62.191406 L 61.746094 62.191406 L 61.570312 59.652344 L 61.511719 59.652344 L 60.949219 62.191406 L 58.933594 62.191406 L 60.359375 55.945312 L 62.914062 55.945312 L 63.089844 58.875 L 63.136719 58.875 L 64.324219 55.945312 L 66.878906 55.945312 L 66.125 62.191406 L 64.101562 62.191406 L 64.417969 59.652344 Z M 58.664062 61.625 L 58.546875 62.15625 L 53.554688 61.625 Z M 58.933594 60.480469 L 58.804688 61.011719 L 53.828125 60.480469 Z M 59.195312 59.347656 L 59.074219 59.878906 L 54.097656 59.347656 Z M 59.441406 58.214844 L 59.3125 58.746094 L 54.367188 58.214844 Z M 59.699219 57.078125 L 59.582031 57.609375 L 54.640625 57.078125 Z M 59.96875 55.945312 L 59.839844 56.476562 L 54.910156 55.945312 Z M 74.761719 59.207031 L 74.773438 58.980469 L 74.679688 58.980469 L 74.128906 62.191406 L 71.890625 62.191406 L 73.1875 54.8125 L 75.421875 54.8125 L 74.890625 57.824219 L 74.988281 57.824219 C 75.050781 57.570312 75.121094 57.382812 75.199219 57.257812 L 76.679688 54.8125 L 79.09375 54.8125 L 76.789062 58.4375 L 77.859375 62.191406 L 75.445312 62.191406 L 74.796875 59.546875 C 74.773438 59.46875 74.761719 59.355469 74.761719 59.207031 Z M 71.632812 61.625 L 71.539062 62.15625 L 66.546875 61.625 Z M 72.03125 59.347656 L 71.9375 59.878906 L 66.949219 59.347656 Z M 72.234375 58.214844 L 72.136719 58.746094 L 67.148438 58.214844 Z M 72.433594 57.078125 L 72.339844 57.609375 L 67.347656 57.078125 Z M 72.621094 55.945312 L 72.539062 56.476562 L 67.546875 55.945312 Z M 71.832031 60.480469 L 71.738281 61.011719 L 66.746094 60.480469 Z M 72.820312 54.8125 L 72.726562 55.34375 L 67.75 54.8125 Z M 86.226562 62.191406 L 84.167969 62.191406 L 84.121094 61.234375 L 82.636719 61.234375 L 82.273438 62.191406 L 80.234375 62.191406 L 82.847656 55.945312 L 85.769531 55.945312 Z M 83.261719 59.546875 L 84.121094 59.546875 L 84.121094 57.753906 L 83.957031 57.753906 Z M 80.082031 61.625 L 79.859375 62.144531 L 75.035156 61.625 Z M 80.566406 60.480469 L 80.34375 61 L 75.515625 60.480469 Z M 81.035156 59.347656 L 80.824219 59.867188 L 76 59.347656 Z M 81.519531 58.214844 L 81.296875 58.734375 L 76.480469 58.214844 Z M 81.988281 57.078125 L 81.777344 57.597656 L 76.964844 57.078125 Z M 82.460938 55.945312 L 82.25 56.453125 L 77.445312 55.945312 Z M 90.382812 55.945312 L 93.371094 55.945312 C 94.515625 55.945312 95.089844 56.464844 95.089844 57.503906 C 95.089844 57.976562 94.996094 58.464844 94.808594 58.972656 C 94.617188 59.480469 94.300781 59.863281 93.855469 60.113281 L 94.523438 62.191406 L 92.324219 62.191406 L 91.875 60.375 L 91.589844 60.375 L 91.277344 62.191406 L 89.296875 62.191406 Z M 92.863281 58.402344 L 92.933594 57.988281 C 92.933594 57.980469 92.9375 57.941406 92.945312 57.871094 C 92.945312 57.738281 92.738281 57.671875 92.324219 57.671875 L 92.0625 57.671875 L 91.875 58.757812 L 92.253906 58.757812 C 92.613281 58.757812 92.816406 58.636719 92.863281 58.402344 Z M 89.003906 61.625 L 88.910156 62.15625 L 83.921875 61.625 Z M 89.402344 59.347656 L 89.308594 59.878906 L 84.320312 59.347656 Z M 89.605469 58.214844 L 89.511719 58.746094 L 84.519531 58.214844 Z M 89.804688 57.078125 L 89.707031 57.609375 L 84.71875 57.078125 Z M 89.992188 55.945312 L 89.910156 56.476562 L 84.921875 55.945312 Z M 89.203125 60.480469 L 89.109375 61.011719 L 84.117188 60.480469 Z M 102.890625 62.191406 L 100.738281 62.191406 L 100.183594 60.148438 L 100.113281 60.148438 L 99.761719 62.191406 L 97.78125 62.191406 L 98.867188 55.945312 L 100.855469 55.945312 L 100.511719 57.859375 L 100.570312 57.859375 L 101.785156 55.945312 L 103.9375 55.945312 L 101.960938 59.003906 Z M 97.488281 61.625 L 97.394531 62.15625 L 92.402344 61.625 Z M 97.886719 59.347656 L 97.792969 59.878906 L 92.804688 59.347656 Z M 98.089844 58.214844 L 97.996094 58.746094 L 93.003906 58.214844 Z M 98.289062 57.078125 L 98.195312 57.609375 L 93.203125 57.078125 Z M 98.476562 55.945312 L 98.394531 56.476562 L 93.402344 55.945312 Z M 97.6875 60.480469 L 97.59375 61.011719 L 92.605469 60.480469 Z M 108.046875 62.191406 L 105.984375 62.191406 L 107.070312 55.945312 L 109.140625 55.945312 Z M 105.691406 61.625 L 105.597656 62.15625 L 100.605469 61.625 Z M 106.09375 59.347656 L 105.996094 59.878906 L 101.007812 59.347656 Z M 106.292969 58.214844 L 106.199219 58.746094 L 101.207031 58.214844 Z M 106.492188 57.078125 L 106.398438 57.609375 L 101.40625 57.078125 Z M 106.679688 55.945312 L 106.597656 56.476562 L 101.609375 55.945312 Z M 105.890625 60.480469 L 105.796875 61.011719 L 100.808594 60.480469 Z M 105.890625 60.480469 " fill-opacity="1" fill-rule="nonzero"/></g><g clip-path="url(#4b3b8f4790)"><path fill="#ffffff" d="M 69.574219 51.992188 L 69.574219 22.769531 L 140.804688 22.769531 L 140.804688 94.234375 L 69.574219 94.234375 L 69.574219 65.011719 L 70.269531 65.011719 L 70.269531 93.539062 L 140.109375 93.539062 L 140.109375 23.46875 L 70.269531 23.46875 L 70.269531 51.992188 Z M 69.574219 51.992188 " fill-opacity="1" fill-rule="nonzero"/></g></svg>